<svg xmlns="http://www.w3.org/2000/svg" viewBox="0 0 225.37 260.24">
  <path fill="#ffffff" d="M0 195.18V65.06L112.69 0l112.68 65.06v130.12l-112.68 65.06L0 195.18z" />
  <path fill="#1d1d1b" d="M112.69 7.96 6.89 69.04V191.2l105.8 61.08 105.79-61.08V69.04L112.69 7.96z"/>
  <path fill="#ffffff" d="M180.28 73.86a809.848 809.848 0 0 0-53.01 16.25c-9.22 3.17-19.94 3.17-29.16 0A809.848 809.848 0 0 0 45.1 73.86c.75 9.47 1.49 18.94 2.24 28.41 12.02 3.38 23.88 7.02 35.56 10.91 2.4.8 1.63 3.45-1.01 3.55a802.88 802.88 0 0 0-32.88 1.91c.61 7.75 1.21 15.5 1.82 23.24 10.64-.83 21.28-1.45 31.94-1.85 2.57-.1 3.48 2.5 1.24 3.47a751.837 751.837 0 0 0-32.25 14.81c.75 9.47 1.49 18.94 2.24 28.41a724.72 724.72 0 0 1 45.44-20.98c8.28-3.49 18.27-3.49 26.55 0 15.54 6.53 30.7 13.53 45.44 20.98.75-9.47 1.49-18.94 2.24-28.41a739.802 739.802 0 0 0-32.25-14.81c-2.25-.97-1.33-3.56 1.24-3.47 10.65.4 21.3 1.02 31.94 1.85.61-7.75 1.21-15.5 1.82-23.24-10.95-.86-21.91-1.49-32.88-1.91-2.64-.1-3.41-2.75-1.01-3.55 11.68-3.89 23.54-7.53 35.56-10.91.75-9.47 1.49-18.94 2.24-28.41Z" />
</svg>
