<svg xmlns="http://www.w3.org/2000/svg" viewBox="0 0 681.43 260.24">
  <path fill="#ffffff" d="M0 195.18V65.06L112.69 0l112.68 65.06v130.12l-112.68 65.06L0 195.18z" />
  <path fill="#292929" d="M112.69 7.96 6.89 69.04V191.2l105.8 61.08 105.79-61.08V69.04L112.69 7.96z" />
  <path fill="#ffffff" d="M180.28 73.86a809.848 809.848 0 0 0-53.01 16.25c-9.22 3.17-19.94 3.17-29.16 0A809.848 809.848 0 0 0 45.1 73.86c.75 9.47 1.49 18.94 2.24 28.41 12.02 3.38 23.88 7.02 35.56 10.91 2.4.8 1.63 3.45-1.01 3.55a802.88 802.88 0 0 0-32.88 1.91c.61 7.75 1.21 15.5 1.82 23.24 10.64-.83 21.28-1.45 31.94-1.85 2.57-.1 3.48 2.5 1.24 3.47a751.837 751.837 0 0 0-32.25 14.81c.75 9.47 1.49 18.94 2.24 28.41a724.72 724.72 0 0 1 45.44-20.98c8.28-3.49 18.27-3.49 26.55 0 15.54 6.53 30.7 13.53 45.44 20.98.75-9.47 1.49-18.94 2.24-28.41a739.802 739.802 0 0 0-32.25-14.81c-2.25-.97-1.33-3.56 1.24-3.47 10.65.4 21.3 1.02 31.94 1.85.61-7.75 1.21-15.5 1.82-23.24-10.95-.86-21.91-1.49-32.88-1.91-2.64-.1-3.41-2.75-1.01-3.55 11.68-3.89 23.54-7.53 35.56-10.91.75-9.47 1.49-18.94 2.24-28.41Z" />
  <path fill="#292929" d="m308.68 129.39-31.21-46.68h30.26l16.83 26.73 16.96-26.73h29.58l-31.21 46.41 32.57 48.58H342.2l-18.18-28.63-18.32 28.63h-29.58l32.57-48.31ZM372.59 123.96h44.51v22.66h-44.51v-22.66ZM430.94 82.71h44.92c14.52 0 24.56 3.8 30.94 10.31 5.56 5.43 8.41 12.76 8.41 22.12v.27c0 14.52-7.73 24.15-19.54 29.17l22.66 33.11h-30.4l-19.13-28.77h-11.53v28.77h-26.33V82.7Zm43.69 45.6c8.96 0 14.11-4.34 14.11-11.26v-.27c0-7.46-5.43-11.26-14.25-11.26h-17.23v22.8h17.37ZM523.34 156.67v-.27c0-15.2 11.53-23.07 28.77-23.07 6.79 0 13.43 1.36 17.64 2.85v-1.22c0-7.6-4.75-11.94-14.66-11.94-7.73 0-13.71 1.49-20.22 4.07l-5.29-18.18c8.28-3.39 17.1-5.7 29.72-5.7s22.12 3.12 27.95 8.96c5.56 5.43 7.87 13.03 7.87 23.34v42.2h-25.51v-7.6c-5.02 5.56-11.94 9.23-21.58 9.23-13.98 0-24.7-8.01-24.7-22.66Zm46.68-5.57v-3.39c-2.58-1.09-6.24-1.9-10.04-1.9-7.46 0-11.81 3.66-11.81 9.09v.27c0 5.02 3.8 8.01 9.09 8.01 7.46 0 12.76-4.75 12.76-12.08ZM602.99 193.44l8.01-18.05c4.07 2.44 8.41 3.93 11.26 3.93 2.58 0 4.34-.68 5.97-2.99l-28.77-72.05h27l14.66 44.24 13.84-44.24h26.46l-26.87 71.65c-6.38 17.1-13.3 23.88-27.95 23.88-9.09 0-16.83-2.58-23.61-6.38Z" />
</svg>
